<svg width="31" height="31" viewBox="0 0 31 31" fill="none" xmlns="http://www.w3.org/2000/svg">
<circle cx="15.5" cy="15.5" r="15.5" fill="url(#paint0_radial_2044_569)"/>
<path d="M19.5712 9.75C23.3034 9.75 23.6426 15.8571 23.6426 17.8929C23.6426 19.9286 23.3034 20.6071 21.9462 20.6071C20.5891 20.6071 19.2319 17.2143 18.2141 17.2143H12.7855C11.7676 17.2143 10.0637 20.6071 9.05336 20.6071C7.69622 20.6071 7.35693 19.9286 7.35693 17.8929C7.35693 15.8571 7.69622 9.75 11.4284 9.75H19.5712ZM12.1052 11.7857H11.7693C11.581 11.7857 11.4284 11.9384 11.4284 12.1267L11.4277 12.9732H10.5818C10.4144 12.9732 10.2752 13.0938 10.2464 13.2529L10.2409 13.3142V13.6501C10.2409 13.8384 10.3935 13.9911 10.5818 13.9911H11.4277L11.4284 14.8376C11.4284 15.005 11.549 15.1442 11.7081 15.1731L11.7693 15.1786H12.1052C12.2936 15.1786 12.4462 15.0259 12.4462 14.8376L12.4455 13.9911H13.2927C13.4601 13.9911 13.5994 13.8704 13.6282 13.7114L13.6337 13.6501V13.3142C13.6337 13.1259 13.4811 12.9732 13.2927 12.9732H12.4455L12.4462 12.1267C12.4462 11.9593 12.3256 11.8201 12.1665 11.7912L12.1052 11.7857ZM19.2302 14.1607H18.8943C18.706 14.1607 18.5534 14.3134 18.5534 14.5017V14.8376C18.5534 15.0259 18.706 15.1786 18.8943 15.1786H19.2302C19.4186 15.1786 19.5712 15.0259 19.5712 14.8376V14.5017C19.5712 14.3134 19.4186 14.1607 19.2302 14.1607ZM18.0427 12.9732H17.7068C17.5185 12.9732 17.3659 13.1259 17.3659 13.3142V13.6501C17.3659 13.8384 17.5185 13.9911 17.7068 13.9911H18.0427C18.2311 13.9911 18.3837 13.8384 18.3837 13.6501V13.3142C18.3837 13.1259 18.2311 12.9732 18.0427 12.9732ZM20.4177 12.9732H20.0818C19.8935 12.9732 19.7409 13.1259 19.7409 13.3142V13.6501C19.7409 13.8384 19.8935 13.9911 20.0818 13.9911H20.4177C20.6061 13.9911 20.7587 13.8384 20.7587 13.6501V13.3142C20.7587 13.1259 20.6061 12.9732 20.4177 12.9732ZM19.2302 11.7857H18.8943C18.706 11.7857 18.5534 11.9384 18.5534 12.1267V12.4626C18.5534 12.6509 18.706 12.8036 18.8943 12.8036H19.2302C19.4186 12.8036 19.5712 12.6509 19.5712 12.4626V12.1267C19.5712 11.9384 19.4186 11.7857 19.2302 11.7857Z" fill="white"/>
<defs>
<radialGradient id="paint0_radial_2044_569" cx="0" cy="0" r="1" gradientUnits="userSpaceOnUse" gradientTransform="translate(8.5 3) rotate(62.8503) scale(21.9146)">
<stop stop-color="#F19F44"/>
<stop offset="1" stop-color="#DD8728"/>
</radialGradient>
</defs>
</svg>
