<svg width="31" height="31" viewBox="0 0 31 31" fill="none" xmlns="http://www.w3.org/2000/svg">
<circle cx="15.5" cy="15.5" r="15.5" fill="url(#paint0_radial_2001_1088)"/>
<path d="M13.7377 21.1333C13.3319 22.7679 13.9412 23.1066 15.0313 21.9132L19.6104 16.6517C20.6698 15.3585 20.4045 14.3196 18.8788 14.0598L16.671 13.651C16.542 13.6271 16.4568 13.5032 16.4807 13.3742C16.4815 13.3699 16.4824 13.3657 16.4834 13.3615L17.333 9.85605C17.74 8.21106 17.0617 7.91316 16.0441 9.07889C14.5821 10.7274 13.471 11.9727 12.7109 12.8149C12.4459 13.1085 12.0194 13.5667 11.4313 14.1897C10.1424 15.62 10.8207 16.6572 12.3115 16.917L14.4215 17.2952C14.5506 17.3183 14.6365 17.4418 14.6134 17.5709C14.6125 17.5759 14.6114 17.5808 14.6102 17.5857L13.7377 21.1333Z" fill="white"/>
<defs>
<radialGradient id="paint0_radial_2001_1088" cx="0" cy="0" r="1" gradientUnits="userSpaceOnUse" gradientTransform="translate(-5.14811e-07 -5.5) rotate(56.5467) scale(33.5596)">
<stop stop-color="#D65C58"/>
<stop offset="1" stop-color="#B13430"/>
</radialGradient>
</defs>
</svg>
